<?xml version="1.0" encoding="UTF-8" standalone="no"?>
<!-- Created with Inkscape (http://www.inkscape.org/) -->

<svg
   xmlns:dc="http://purl.org/dc/elements/1.1/"
   xmlns:cc="http://creativecommons.org/ns#"
   xmlns:rdf="http://www.w3.org/1999/02/22-rdf-syntax-ns#"
   xmlns:svg="http://www.w3.org/2000/svg"
   xmlns="http://www.w3.org/2000/svg"
   xmlns:sodipodi="http://sodipodi.sourceforge.net/DTD/sodipodi-0.dtd"
   xmlns:inkscape="http://www.inkscape.org/namespaces/inkscape"
   width="94.494827mm"
   height="34.023762mm"
   viewBox="0 0 94.494827 34.023762"
   version="1.1"
   id="svg8"
   inkscape:version="0.92.3 (2405546, 2018-03-11)"
   sodipodi:docname="cs-white-stacked.svg">
  <defs
     id="defs2">
    <clipPath
       id="clip1">
      <path
         id="path10"
         d="m 247,62 h 20.85937 V 96.449219 H 247 Z m 0,0"
         inkscape:connector-curvature="0" />
    </clipPath>
  </defs>
  <sodipodi:namedview
     id="base"
     pagecolor="#ffffff"
     bordercolor="#666666"
     borderopacity="1.0"
     inkscape:pageopacity="0.0"
     inkscape:pageshadow="2"
     inkscape:zoom="0.35"
     inkscape:cx="-345.71282"
     inkscape:cy="-64.274554"
     inkscape:document-units="mm"
     inkscape:current-layer="layer1"
     showgrid="false"
     inkscape:window-width="1920"
     inkscape:window-height="1017"
     inkscape:window-x="-8"
     inkscape:window-y="-8"
     inkscape:window-maximized="1" />
  <metadata
     id="metadata5">
    <rdf:RDF>
      <cc:Work
         rdf:about="">
        <dc:format>image/svg+xml</dc:format>
        <dc:type
           rdf:resource="http://purl.org/dc/dcmitype/StillImage" />
        <dc:title></dc:title>
      </cc:Work>
    </rdf:RDF>
  </metadata>
  <g
     inkscape:label="Layer 1"
     inkscape:groupmode="layer"
     id="layer1"
     transform="translate(-57.82997,-97.803597)">
    <g
       id="surface6712"
       transform="matrix(0.35277775,0,0,0.35277775,57.82997,97.802219)">
      <path
         id="path15"
         d="M 93.070313,22.203125 H 95.0625 V 0.00390625 h -1.992187 z m 0,0"
         style="fill:#ffffff;fill-opacity:1;fill-rule:nonzero;stroke:none"
         inkscape:connector-curvature="0" />
      <path
         id="path17"
         d="M 100.57422,22.203125 V 0.09375 h 13.13672 v 1.835938 h -11.14453 v 7.933593 h 10.71875 v 1.835938 h -10.71875 v 8.667969 h 11.60547 v 1.835937 h -13.59766"
         style="fill:#ffffff;fill-opacity:1;fill-rule:nonzero;stroke:none"
         inkscape:connector-curvature="0" />
      <path
         id="path19"
         d="M 118.98047,22.203125 V 0.09375 h 13.13281 v 1.835938 h -11.14453 v 7.933593 h 10.71875 v 1.835938 h -10.71875 v 8.667969 h 11.60547 v 1.835937 h -13.59375"
         style="fill:#ffffff;fill-opacity:1;fill-rule:nonzero;stroke:none"
         inkscape:connector-curvature="0" />
      <path
         id="path21"
         d="M 137.53516,22.203125 V 0.09375 h 13.14062 v 1.835938 h -11.14844 v 7.933593 h 10.71875 v 1.835938 h -10.71875 v 8.667969 h 11.60938 v 1.835937 h -13.60156"
         style="fill:#ffffff;fill-opacity:1;fill-rule:nonzero;stroke:none"
         inkscape:connector-curvature="0" />
      <path
         id="path23"
         d="m 59.253906,54.679688 c -3.320312,0 -5.808593,-1.15625 -7.421875,-3.460938 -1.523437,-2.167969 -2.21875,-4.839844 -2.21875,-8.347656 0,-5.210938 1.664063,-8.207031 3.875,-10.191406 1.707032,-1.523438 3.738282,-2.351563 5.996094,-2.351563 2.492188,0 4.519531,0.828125 6.273438,2.445313 l -2.214844,2.902343 c -1.519531,-1.335937 -2.582031,-1.796875 -4.058594,-1.796875 -1.75,0 -3.273437,0.921875 -4.058594,2.492188 -0.78125,1.566406 -1.105468,3.871094 -1.105468,7.054687 0,3.226563 0.644531,5.347657 1.84375,6.640625 0.832031,0.875 1.984375,1.386719 3.320312,1.386719 1.707031,0 3.414063,-0.832031 4.796875,-2.402344 l 2.074219,2.628907 c -2.210938,2.167968 -4.148438,3 -7.101563,3"
         style="fill:#ffffff;fill-opacity:1;fill-rule:nonzero;stroke:none"
         inkscape:connector-curvature="0" />
      <path
         id="path25"
         d="m 77.484375,33.738281 c -3.691406,0 -5.210937,2.632813 -5.210937,8.441407 0,7.054687 1.796875,9.40625 5.394531,9.40625 3.226562,0 5.210937,-2.488282 5.210937,-8.53125 0,-7.144532 -2.074218,-9.316407 -5.394531,-9.316407 m 0.08984,21.121094 c -6.179688,0 -10.007813,-4.699219 -10.007813,-12.21875 0,-7.472656 3.828125,-12.175781 9.917969,-12.175781 6.824219,0 10.144531,5.445312 10.144531,12.40625 0,7.332031 -3.917968,11.988281 -10.054687,11.988281"
         style="fill:#ffffff;fill-opacity:1;fill-rule:nonzero;stroke:none"
         inkscape:connector-curvature="0" />
      <path
         id="path27"
         d="M 116.07422,54.214844 V 37.660156 c 0,-2.628906 -0.83203,-3.550781 -2.76953,-3.550781 -2.1211,0 -3.64453,1.382813 -5.39453,3.136719 v 16.96875 h -4.15235 V 37.753906 c 0,-2.585937 -0.73828,-3.550781 -2.85937,-3.550781 -1.566409,0 -3.320315,0.78125 -5.300784,2.671875 v 17.339844 h -4.199218 v -16.96875 c 0,-3.273438 -0.183594,-4.152344 -0.828125,-5.765625 l 3.964843,-0.96875 c 0.460938,0.785156 0.785157,1.9375 0.785157,3.226562 1.980468,-2.074218 4.335937,-3.273437 6.499997,-3.273437 2.16797,0 4.33594,1.15625 5.48828,3.644531 2.3086,-2.445312 4.70704,-3.644531 7.0586,-3.644531 3.59765,0 5.90234,2.257812 5.90234,6.503906 v 17.246094 h -4.19531"
         style="fill:#ffffff;fill-opacity:1;fill-rule:nonzero;stroke:none"
         inkscape:connector-curvature="0" />
      <path
         id="path29"
         d="m 134.01172,34.109375 c -2.07813,0 -3.96485,1.011719 -5.53516,2.859375 v 11.761719 c 1.42969,1.519531 3.22656,2.535156 4.9336,2.535156 3.73437,0 5.44531,-2.859375 5.44531,-8.488281 0,-5.484375 -1.20313,-8.667969 -4.84375,-8.667969 m 0.36719,20.570313 c -2.1211,0 -4.19532,-0.78125 -5.99219,-2.398438 0.0898,0.738281 0.0898,1.75 0.0898,2.578125 v 8.121094 l -4.15234,0.96875 V 36.785156 c 0,-2.722656 -0.18359,-4.195312 -0.50391,-5.675781 l 4.10157,-0.691406 c 0.18749,0.691406 0.27734,1.386719 0.27734,3.320312 1.80078,-2.164062 4.10547,-3.226562 6.55078,-3.226562 4.70312,0 8.67187,3.828125 8.67187,11.761719 0,7.191406 -3.14062,12.40625 -9.04296,12.40625"
         style="fill:#ffffff;fill-opacity:1;fill-rule:nonzero;stroke:none"
         inkscape:connector-curvature="0" />
      <path
         id="path31"
         d="m 163.10937,55 c -1.14843,-0.875 -1.75,-1.753906 -2.16406,-3.320312 C 159.10156,53.941406 156.83984,55 153.98047,55 c -2.95313,0 -5.25391,-1.335937 -6.22266,-3.457031 -0.41797,-0.921875 -0.55859,-2.214844 -0.55859,-3.875 V 31.25 l 4.19922,-0.832031 v 16.097656 c 0,2.351563 0.23047,3.273438 1.0625,4.058594 0.59765,0.554687 1.65625,1.011719 2.67578,1.011719 2.07422,0 4.28906,-1.613282 5.2539,-3.640625 V 31.34375 l 4.19922,-0.832031 v 17.386719 c 0,2.351562 0.50782,4.011718 1.42969,4.796875 L 163.10937,55"
         style="fill:#ffffff;fill-opacity:1;fill-rule:nonzero;stroke:none"
         inkscape:connector-curvature="0" />
      <path
         id="path33"
         d="m 180.00781,34.109375 h -4.57031 v 13.929688 c 0,2.859375 0.69531,3.734375 3,3.734375 0.78516,0 1.42969,-0.140625 2.16797,-0.460938 l 0.5039,2.585938 c -1.28906,0.640625 -2.67187,0.960937 -4.19531,0.960937 -1.51953,0 -3.18359,-0.457031 -3.92187,-1.148437 -0.96485,-0.875 -1.70313,-1.339844 -1.70313,-4.703125 V 34.109375 h -2.76953 v -3 h 2.76953 c 0,-1.796875 0.0469,-4.148437 0.27344,-5.898437 l 4.38281,-1.015625 c -0.18359,1.660156 -0.41406,4.5625 -0.41406,6.914062 h 5.625 l -1.14844,3"
         style="fill:#ffffff;fill-opacity:1;fill-rule:nonzero;stroke:none"
         inkscape:connector-curvature="0" />
      <path
         id="path35"
         d="m 194.8125,35.214844 c -0.74219,-0.917969 -1.84766,-1.613281 -3.32422,-1.613281 -3.22656,0 -4.84375,2.628906 -4.84375,6.824218 h 9.59375 c 0,-2.210937 -0.50781,-4.054687 -1.42578,-5.210937 m -8.21094,8.347656 v 0.554688 c 0,1.980468 0.27735,3.503906 0.96485,4.613281 1.20312,1.84375 3.08984,2.722656 5.30468,2.722656 2.16797,0 4.01563,-0.738281 5.67578,-2.21875 l 1.60938,2.539063 c -2.25781,1.984375 -4.97656,2.953125 -7.97266,2.953125 -6.41406,0 -10.33203,-4.660157 -10.33203,-12.222657 0,-4.015625 0.78516,-6.59375 2.76563,-8.949218 1.84765,-2.167969 4.10547,-3.179688 6.96484,-3.179688 2.58203,0 4.65625,0.828125 6.27344,2.488281 2.02734,2.078125 2.76562,4.660157 2.80859,9.960938 0,0.140625 0,0.464844 0,0.738281 h -14.0625"
         style="fill:#ffffff;fill-opacity:1;fill-rule:nonzero;stroke:none"
         inkscape:connector-curvature="0" />
      <path
         id="path37"
         d="m 214.82422,34.847656 c -0.41406,-0.136718 -0.73438,-0.230468 -1.19531,-0.230468 -2.58594,0 -4.80079,2.167968 -4.80079,4.703125 v 14.894531 h -4.23828 v -16.96875 c 0,-2.816406 -0.32422,-4.335938 -0.8789,-5.765625 l 4.10156,-1.0625 c 0.41797,0.878906 0.78906,2.398437 0.78906,3.554687 v 0.414063 c 1.83985,-2.675781 3.82813,-4.011719 6.26953,-4.011719 0.55469,0 1.0625,0.08984 1.4336,0.230469 l -1.48047,4.242187"
         style="fill:#ffffff;fill-opacity:1;fill-rule:nonzero;stroke:none"
         inkscape:connector-curvature="0" />
      <path
         id="path39"
         d="m 150.67578,87.273438 c -2.81641,0 -5.94922,-0.875 -8.625,-2.445313 l 1.51953,-3.042969 c 2.21485,1.246094 4.84375,2.304688 7.42578,2.304688 2.53516,0 4.28907,-1.476563 4.28907,-3.734375 0,-1.984375 -1.19532,-3.136719 -3.875,-3.644531 l -2.8125,-0.554688 c -3.64063,-0.691406 -5.625,-2.996094 -5.625,-6.410156 0,-4.242188 3.36718,-7.191406 8.34765,-7.191406 2.8125,0 5.39844,0.78125 7.28516,1.886718 l -1.42578,3 c -2.1211,-1.0625 -3.82813,-1.660156 -5.67188,-1.660156 -2.44531,0 -4.01562,1.382813 -4.01562,3.457031 0,1.660157 0.82812,2.582032 3.27734,3.136719 l 2.99609,0.695313 c 4.24219,0.96875 5.9961,3.410156 5.9961,6.453125 0,4.613281 -3.69141,7.75 -9.08594,7.75"
         style="fill:#ffffff;fill-opacity:1;fill-rule:nonzero;stroke:none"
         inkscape:connector-curvature="0" />
      <path
         id="path41"
         d="m 172.35156,66.148438 c -3.6914,0 -5.21094,2.628906 -5.21094,8.441406 0,7.054687 1.79688,9.40625 5.39063,9.40625 3.23047,0 5.21484,-2.488281 5.21484,-8.53125 0,-7.144531 -2.07422,-9.316406 -5.39453,-9.316406 m 0.0898,21.125 c -6.17969,0 -10.00391,-4.707032 -10.00391,-12.222657 0,-7.472656 3.82422,-12.175781 9.91406,-12.175781 6.82422,0 10.14453,5.445313 10.14453,12.40625 0,7.332031 -3.92187,11.992188 -10.05468,11.992188"
         style="fill:#ffffff;fill-opacity:1;fill-rule:nonzero;stroke:none"
         inkscape:connector-curvature="0" />
      <path
         id="path43"
         d="m 194.80859,87.089844 c -3.32031,0 -5.8125,-1.15625 -7.42578,-3.460938 -1.52344,-2.167968 -2.21094,-4.84375 -2.21094,-8.347656 0,-5.210937 1.66016,-8.207031 3.875,-10.195312 1.70313,-1.519532 3.73047,-2.347657 5.99219,-2.347657 2.49219,0 4.51953,0.828125 6.27344,2.441407 l -2.21484,2.90625 c -1.51954,-1.335938 -2.58204,-1.796875 -4.0586,-1.796875 -1.7539,0 -3.27344,0.921875 -4.05859,2.488281 -0.78516,1.570312 -1.10547,3.875 -1.10547,7.058594 0,3.226562 0.64453,5.347656 1.84375,6.640625 0.83203,0.875 1.98437,1.382812 3.32031,1.382812 1.70703,0 3.41406,-0.828125 4.79688,-2.398437 l 2.07422,2.628906 c -2.21485,2.167969 -4.14844,3 -7.10157,3"
         style="fill:#ffffff;fill-opacity:1;fill-rule:nonzero;stroke:none"
         inkscape:connector-curvature="0" />
      <path
         id="path45"
         d="M 204.76953,86.625 V 63.660156 l 4.38281,-0.691406 V 86.625 h -4.38281"
         style="fill:#ffffff;fill-opacity:1;fill-rule:nonzero;stroke:none"
         inkscape:connector-curvature="0" />
      <path
         id="path47"
         d="m 225.80078,67.625 c -0.73828,-0.921875 -1.84375,-1.613281 -3.32031,-1.613281 -3.22656,0 -4.84375,2.628906 -4.84375,6.824219 h 9.59375 c 0,-2.210938 -0.50781,-4.058594 -1.42969,-5.210938 m -8.20703,8.347656 v 0.554688 c 0,1.980469 0.27344,3.503906 0.96875,4.609375 1.19922,1.847656 3.08594,2.722656 5.30078,2.722656 2.16797,0 4.01563,-0.738281 5.67188,-2.214844 l 1.61328,2.535157 c -2.25782,1.984375 -4.97657,2.953125 -7.97657,2.953125 -6.41015,0 -10.32812,-4.65625 -10.32812,-12.21875 0,-4.015625 0.78125,-6.59375 2.76172,-8.949219 1.84375,-2.167969 4.10937,-3.183594 6.96484,-3.183594 2.58203,0 4.66016,0.832031 6.27344,2.492188 2.03125,2.074218 2.76562,4.660156 2.8125,9.960937 0,0.140625 0,0.464844 0,0.738281 h -14.0625"
         style="fill:#ffffff;fill-opacity:1;fill-rule:nonzero;stroke:none"
         inkscape:connector-curvature="0" />
      <path
         id="path49"
         d="m 244.61328,66.519531 h -4.55859 v 13.929688 c 0,2.855469 0.6875,3.730469 2.99609,3.730469 0.78516,0 1.42969,-0.136719 2.16797,-0.457032 l 0.50781,2.582032 c -1.29297,0.644531 -2.67578,0.96875 -4.19922,0.96875 -1.51953,0 -3.17968,-0.464844 -3.92187,-1.152344 -0.96485,-0.878906 -1.70703,-1.339844 -1.70703,-4.703125 V 66.519531 h -2.76563 v -3 h 2.76563 c 0,-1.796875 0.0469,-4.148437 0.28125,-5.902343 l 4.3789,-1.015625 c -0.18359,1.660156 -0.41406,4.566406 -0.41406,6.917968 h 5.625 l -1.15625,3"
         style="fill:#ffffff;fill-opacity:1;fill-rule:nonzero;stroke:none"
         inkscape:connector-curvature="0" />
      <g
         id="g53"
         clip-path="url(#clip1)"
         style="clip-rule:nonzero">
        <path
           id="path51"
           d="m 259.78906,87.363281 c -1.10547,3.273438 -2.30469,5.765625 -3.91797,7.105469 -1.10547,0.921875 -2.72265,1.660156 -4.28906,1.980469 l -1.33984,-2.765625 c 1.66015,-0.417969 2.86328,-1.199219 4.01562,-2.628906 0.73438,-0.921875 1.19531,-2.167969 1.88672,-4.519532 l -1.66016,0.230469 c -0.59765,-2.722656 -1.28906,-4.980469 -2.21093,-7.703125 l -5.1211,-15.171875 4.28907,-0.96875 4.42968,14.527344 c 0.41407,1.429687 1.01563,3.875 1.33985,5.441406 h 0.27343 c 0.3711,-1.566406 0.92188,-3.644531 1.57032,-5.71875 l 4.10156,-13.652344 h 4.70312 l -8.07031,23.84375"
           style="fill:#ffffff;fill-opacity:1;fill-rule:nonzero;stroke:none"
           inkscape:connector-curvature="0" />
      </g>
      <path
         id="path55"
         d="m 22.457031,22.632813 c -11.164062,0 -20.210937,9.046875 -20.210937,20.210937 0,11.160156 9.046875,20.210938 20.210937,20.210938 11.160157,0 20.207032,-9.050782 20.207032,-20.210938 0,-11.164062 -9.046875,-20.210937 -20.207032,-20.210937 M 44.910156,42.84375 c 0,12.402344 -10.054687,22.457031 -22.453125,22.457031 C 10.054688,65.300781 0,55.246094 0,42.84375 0,30.441406 10.054688,20.386719 22.457031,20.386719 c 12.398438,0 22.453125,10.054687 22.453125,22.457031"
         style="fill:#ffffff;fill-opacity:1;fill-rule:nonzero;stroke:none"
         inkscape:connector-curvature="0" />
      <path
         id="path57"
         d="M 18.847656,36.164063 H 18.875 l 0.02734,13.578125 h -0.832031 c -3.75,0 -6.789063,-3.039063 -6.789063,-6.789063 0,-3.75 3.039063,-6.789062 6.789063,-6.789062 h 0.777343 m 6.441407,13.578125 h -0.02734 l -0.02734,-13.578125 h 0.832031 c 3.75,0 6.789063,3.039062 6.789063,6.789062 0,3.75 -3.039063,6.789063 -6.789063,6.789063 z M 31.65234,33.542969 h -6.425781 l -0.01563,-8.871094 h -2.609375 c -1.257813,2.398438 -4.71875,4.179688 -8.910157,4.421875 l -0.01953,0.01172 v 1.96875 h 5.230469 v 2.46875 H 13.14843 c -5.195313,0 -8.632813,4.214844 -8.632813,9.410156 0,5.195313 3.4375,9.40625 8.632813,9.40625 h 5.753906 v 0.449219 c 0,2.550781 -2.84375,4.621094 -5.394531,4.621094 v 1.96875 h 17.15625 v -1.96875 c -2.550782,0 -5.394532,-2.070313 -5.394532,-4.621094 v -0.449219 h 6.382813 c 5.199219,0 8.632812,-4.210937 8.632812,-9.40625 0,-5.195312 -3.433593,-9.410156 -8.632812,-9.410156"
         style="fill:#ffffff;fill-opacity:1;fill-rule:nonzero;stroke:none"
         inkscape:connector-curvature="0" />
      <path
         id="path59"
         d="m 43.292969,22.242188 h 0.28125 c 0.363281,0 0.527344,-0.03906 0.636719,-0.140625 C 44.3125,22 44.371094,21.847656 44.371094,21.675781 c 0,-0.261718 -0.09766,-0.445312 -0.300781,-0.515625 -0.08984,-0.03906 -0.273438,-0.05859 -0.476563,-0.05859 h -0.300781 z m 0.738281,-1.820313 c 0.746094,0 1.242188,0.496094 1.242188,1.234375 0,0.636719 -0.425782,1.152344 -0.941407,1.160156 0.08203,0.07031 0.121094,0.113282 0.171875,0.183594 0.242188,0.300781 1.011719,1.636719 1.011719,1.636719 h -1 C 44.351563,24.351563 44.28125,24.242188 44.121094,23.9375 c -0.414063,-0.757812 -0.546875,-0.957031 -0.699219,-1.027344 -0.03906,-0.01172 -0.07813,-0.03125 -0.128906,-0.03125 v 1.757813 h -0.828125 v -4.214844 z m -0.253906,-0.875 c -1.597656,0 -2.878906,1.332031 -2.878906,3.007813 0,1.675781 1.28125,3.03125 2.878906,3.03125 1.59375,0 2.886719,-1.355469 2.886719,-3.03125 0,-1.675782 -1.292969,-3.007813 -2.886719,-3.007813 z m 0,6.765625 c -2.050781,0 -3.738281,-1.65625 -3.738281,-3.757812 0,-2.089844 1.6875,-3.757813 3.738281,-3.757813 2.050781,0 3.738281,1.667969 3.738281,3.757813 0,2.101562 -1.6875,3.757812 -3.738281,3.757812"
         style="fill:#ffffff;fill-opacity:1;fill-rule:nonzero;stroke:none"
         inkscape:connector-curvature="0" />
    </g>
  </g>
</svg>
